<svg xmlns="http://www.w3.org/2000/svg" viewBox="0 0 25.96 32"><path d="M11.17,12l.11,8L16,23.77l4.56-3.87-.07-8.25L15.83,8.17Zm7.45,1.45v4.91l-2.7,2.28-2.77-2.3,0-4.74,2.76-2.24Z" transform="translate(-3.02 0)" style="fill:#aaa"/><path d="M24.26,18.45V13.23l4.33-6.08L22.47,8.64C17.74,4.65,18.54,5.59,16,0c-2.72,5.59-2.2,4.73-6.9,8.69L3.23,7.14l4.43,6.31V18.4L3,24.4l6.42-1.62,4,3.72L16.15,32c2.48-5.64,1.78-5,6.37-9.22L29,24.62Zm-2.2,2.42L16,25.61,9.75,20.83,9.69,11,15.9,6.34l6.16,4.35Z" transform="translate(-3.02 0)" style="fill:#aaa"/></svg>